<svg id="svg" version="1.1" xmlns="http://www.w3.org/2000/svg" xmlns:xlink="http://www.w3.org/1999/xlink" width="400" height="299.8535871156662" viewBox="0, 0, 400,299.8535871156662"><g id="svgg"><path id="path0" d="M170.083 17.538 C 169.808 17.634,169.394 17.779,169.163 17.860 C 168.652 18.041,167.891 19.250,167.744 20.117 C 167.684 20.465,167.486 21.162,167.303 21.667 C 167.120 22.171,166.906 22.921,166.828 23.333 C 166.749 23.746,166.562 24.496,166.412 25.000 C 165.964 26.500,165.868 26.850,165.501 28.333 C 165.308 29.113,165.004 30.200,164.825 30.750 C 164.646 31.300,164.432 32.087,164.349 32.500 C 164.266 32.912,164.069 33.700,163.911 34.250 C 163.754 34.800,163.563 35.550,163.488 35.917 C 163.247 37.090,162.650 39.393,162.385 40.167 C 162.244 40.579,162.021 41.367,161.889 41.917 C 161.757 42.467,161.582 43.179,161.500 43.500 C 161.418 43.821,161.231 44.571,161.083 45.167 C 160.936 45.762,160.738 46.550,160.645 46.917 C 160.551 47.283,160.381 48.033,160.266 48.583 C 160.152 49.133,160.014 49.696,159.960 49.833 C 159.906 49.971,159.734 50.657,159.577 51.359 L 159.291 52.634 158.354 52.912 C 157.838 53.064,156.967 53.372,156.417 53.595 C 155.867 53.818,155.290 54.001,155.135 54.000 C 154.980 54.000,154.807 54.075,154.750 54.167 C 154.693 54.258,154.534 54.333,154.397 54.333 C 154.259 54.333,153.757 54.513,153.281 54.734 C 152.806 54.954,152.229 55.188,152.000 55.255 C 151.115 55.513,148.252 56.830,144.750 58.589 C 142.005 59.968,135.647 63.635,135.250 64.068 C 135.158 64.168,134.296 64.774,133.333 65.414 C 131.514 66.623,130.260 67.557,129.025 68.624 C 128.626 68.968,128.176 69.319,128.025 69.404 C 127.704 69.583,125.708 71.264,124.193 72.630 C 122.842 73.848,119.031 77.638,117.061 79.722 C 115.322 81.563,115.445 81.523,113.856 80.750 C 113.197 80.429,112.618 80.167,112.568 80.167 C 112.519 80.167,111.694 79.792,110.734 79.333 C 109.774 78.875,108.848 78.500,108.675 78.500 C 108.502 78.500,108.336 78.444,108.306 78.375 C 108.275 78.306,107.500 77.923,106.583 77.523 C 105.667 77.122,104.369 76.541,103.700 76.231 C 103.030 75.921,102.415 75.667,102.332 75.667 C 102.181 75.667,100.145 74.784,97.866 73.730 C 97.197 73.420,96.581 73.167,96.498 73.167 C 96.415 73.167,95.651 72.857,94.799 72.478 C 92.335 71.382,91.942 71.217,91.500 71.094 C 91.271 71.030,90.858 70.875,90.583 70.749 C 90.308 70.624,89.560 70.323,88.921 70.080 C 88.282 69.837,87.476 69.382,87.129 69.069 C 86.558 68.553,86.405 68.500,85.489 68.500 C 83.599 68.500,83.178 68.942,80.877 73.333 C 80.661 73.746,80.417 74.196,80.335 74.333 C 79.777 75.268,78.845 76.939,78.290 78.000 C 77.146 80.187,76.752 80.914,76.667 81.000 C 76.481 81.186,76.000 82.208,76.000 82.416 C 76.000 82.539,75.944 82.664,75.875 82.694 C 75.806 82.725,75.499 83.237,75.193 83.833 C 74.886 84.429,74.280 85.592,73.846 86.417 C 66.273 100.819,66.241 101.098,71.642 105.200 C 72.160 105.594,72.643 106.010,72.717 106.125 C 72.790 106.239,73.052 106.442,73.300 106.574 C 73.547 106.706,74.017 107.063,74.342 107.366 C 74.668 107.669,75.456 108.338,76.092 108.853 C 76.729 109.369,77.460 109.987,77.717 110.228 C 77.974 110.469,78.236 110.667,78.301 110.667 C 78.365 110.667,78.761 110.987,79.182 111.378 C 79.602 111.770,80.727 112.710,81.681 113.468 C 82.636 114.226,83.717 115.102,84.083 115.415 C 84.450 115.727,85.388 116.479,86.167 117.085 C 86.946 117.691,87.811 118.388,88.090 118.635 C 88.634 119.116,90.263 120.362,91.088 120.927 C 91.365 121.117,91.740 121.395,91.921 121.545 C 92.677 122.171,94.218 123.323,94.363 123.371 C 94.580 123.443,94.031 127.712,93.745 128.175 C 93.631 128.358,93.554 128.973,93.181 132.667 C 93.093 133.537,92.934 134.962,92.827 135.833 C 92.551 138.100,92.715 149.632,93.070 152.917 C 93.500 156.892,93.623 157.827,93.915 159.333 C 94.066 160.112,94.251 161.237,94.326 161.833 C 94.462 162.916,94.887 164.683,95.090 165.011 C 95.266 165.295,95.027 165.953,94.710 166.056 C 94.306 166.189,92.554 167.180,91.768 167.720 C 91.412 167.966,91.044 168.167,90.951 168.167 C 90.858 168.167,90.536 168.354,90.235 168.583 C 89.935 168.812,89.609 169.000,89.511 169.000 C 89.413 169.000,89.333 169.063,89.333 169.140 C 89.333 169.217,89.127 169.373,88.875 169.487 C 88.623 169.601,88.031 169.949,87.559 170.261 C 87.087 170.573,86.524 170.908,86.309 171.004 C 86.093 171.100,85.467 171.475,84.917 171.837 C 84.367 172.199,83.625 172.665,83.269 172.873 C 82.913 173.080,82.498 173.325,82.346 173.417 C 82.195 173.508,81.267 174.071,80.284 174.667 C 79.302 175.262,78.364 175.825,78.201 175.917 C 76.807 176.700,73.373 178.841,72.256 179.625 C 71.831 179.923,71.448 180.167,71.405 180.167 C 71.291 180.167,69.956 181.046,69.696 181.291 C 69.575 181.406,69.381 181.500,69.264 181.500 C 69.147 181.500,68.927 181.638,68.775 181.806 C 68.623 181.974,67.862 182.443,67.084 182.848 C 64.775 184.049,64.499 185.690,66.075 188.833 C 66.512 189.704,66.966 190.642,67.084 190.917 C 67.978 193.000,74.835 206.547,75.042 206.639 C 75.110 206.669,75.167 206.823,75.167 206.981 C 75.167 207.138,75.233 207.338,75.314 207.425 C 75.453 207.574,75.954 208.502,77.829 212.083 C 80.811 217.776,81.414 218.038,87.333 216.217 C 88.112 215.977,88.900 215.728,89.083 215.663 C 89.267 215.598,89.717 215.468,90.083 215.376 C 92.246 214.829,98.260 212.929,106.250 210.269 C 113.511 207.852,114.133 207.638,115.155 207.201 C 115.880 206.890,116.521 207.191,117.215 208.168 C 117.884 209.108,122.023 213.322,124.007 215.083 C 124.937 215.908,125.915 216.790,126.181 217.042 C 126.446 217.294,126.724 217.500,126.798 217.500 C 126.871 217.500,127.234 217.781,127.604 218.125 C 128.679 219.125,129.791 220.000,129.986 220.000 C 130.086 220.000,130.167 220.073,130.167 220.161 C 130.167 220.250,130.344 220.419,130.561 220.536 C 130.778 220.654,131.209 220.957,131.520 221.211 C 132.104 221.688,135.517 224.078,135.772 224.188 C 135.852 224.223,136.554 224.670,137.333 225.182 C 138.112 225.694,139.200 226.361,139.750 226.666 C 140.300 226.970,141.012 227.384,141.333 227.585 C 141.654 227.786,142.667 228.341,143.583 228.819 C 144.500 229.297,145.362 229.748,145.500 229.822 C 146.040 230.112,148.657 231.327,150.000 231.913 C 150.779 232.252,151.743 232.676,152.142 232.854 C 152.541 233.033,153.329 233.336,153.892 233.528 C 154.456 233.720,154.992 233.929,155.083 233.991 C 155.259 234.111,161.208 236.050,163.333 236.679 C 164.021 236.883,164.904 237.086,165.295 237.130 C 165.687 237.175,166.048 237.276,166.097 237.355 C 166.146 237.435,166.332 237.500,166.510 237.500 C 166.812 237.500,166.833 237.632,166.833 239.546 C 166.833 240.671,166.914 242.228,167.013 243.004 C 167.181 244.325,167.301 246.023,167.649 252.000 C 167.726 253.329,167.841 254.717,167.904 255.083 C 168.024 255.778,168.237 258.326,168.497 262.167 C 168.636 264.211,168.971 267.484,169.308 270.083 C 169.509 271.635,170.301 273.006,171.286 273.509 L 172.083 273.917 182.833 273.869 C 189.982 273.838,194.812 273.740,197.250 273.578 C 199.267 273.444,201.532 273.334,202.284 273.334 C 203.036 273.334,203.823 273.263,204.034 273.177 C 204.244 273.091,204.696 272.976,205.037 272.921 C 206.597 272.668,207.438 271.143,208.163 267.250 C 208.265 266.700,208.452 265.762,208.578 265.167 C 208.703 264.571,208.891 263.633,208.994 263.083 C 209.098 262.533,209.285 261.596,209.411 261.000 C 209.537 260.404,209.724 259.467,209.828 258.917 C 209.931 258.367,210.118 257.429,210.244 256.833 C 210.370 256.237,210.549 255.338,210.643 254.833 C 210.830 253.825,211.267 251.535,211.422 250.750 C 211.476 250.475,211.588 249.838,211.669 249.333 C 211.751 248.829,211.895 248.117,211.988 247.750 C 212.082 247.383,212.161 246.807,212.163 246.468 C 212.165 246.130,212.242 245.807,212.333 245.750 C 212.425 245.693,212.500 245.319,212.500 244.918 C 212.500 244.517,212.581 243.977,212.679 243.719 C 212.777 243.461,212.933 242.688,213.025 242.000 C 213.675 237.145,213.890 236.333,214.523 236.333 C 214.696 236.333,215.745 236.033,216.854 235.667 C 217.962 235.300,218.975 235.000,219.104 235.000 C 219.232 235.000,219.468 234.923,219.627 234.829 C 219.786 234.734,220.517 234.443,221.250 234.180 C 223.528 233.365,224.875 232.839,225.066 232.690 C 225.167 232.611,225.455 232.497,225.707 232.437 C 226.593 232.225,232.927 229.182,234.545 228.191 C 235.165 227.811,235.748 227.500,235.840 227.500 C 236.040 227.500,237.393 226.637,237.472 226.458 C 237.503 226.390,237.607 226.333,237.704 226.333 C 237.801 226.333,238.356 226.033,238.936 225.667 C 239.517 225.300,240.056 225.000,240.134 225.000 C 240.211 225.000,240.451 224.813,240.667 224.583 C 240.882 224.354,241.139 224.163,241.237 224.158 C 241.336 224.154,241.867 223.817,242.417 223.411 C 242.967 223.005,243.698 222.520,244.042 222.333 C 244.385 222.146,244.667 221.932,244.667 221.857 C 244.667 221.782,244.835 221.642,245.042 221.547 C 245.467 221.350,247.353 219.911,248.037 219.261 C 248.286 219.024,248.737 218.662,249.039 218.457 C 250.660 217.355,259.160 209.261,259.930 208.086 C 260.282 207.550,260.431 207.559,261.397 208.171 C 261.834 208.449,262.955 209.074,263.888 209.562 C 264.820 210.049,265.883 210.619,266.250 210.828 C 267.050 211.285,275.470 215.497,276.417 215.915 C 276.783 216.077,277.946 216.619,279.000 217.121 C 280.054 217.622,281.479 218.298,282.167 218.622 C 282.854 218.947,283.529 219.275,283.667 219.352 C 289.731 222.735,291.323 222.645,293.304 218.812 C 294.098 217.274,294.535 216.497,295.692 214.553 C 296.119 213.836,296.708 212.800,297.001 212.250 C 297.294 211.700,297.630 211.137,297.747 211.000 C 297.864 210.862,298.239 210.225,298.581 209.583 C 298.922 208.942,299.259 208.342,299.329 208.250 C 299.436 208.109,300.015 207.084,300.741 205.750 C 300.970 205.329,301.458 204.547,301.849 203.976 C 302.015 203.733,302.522 202.827,302.976 201.963 C 303.429 201.099,304.064 199.979,304.387 199.475 C 306.096 196.802,308.000 192.889,308.000 192.047 C 308.000 190.734,306.728 189.213,303.083 186.172 C 302.625 185.790,302.025 185.269,301.750 185.014 C 301.475 184.760,301.128 184.484,300.979 184.401 C 300.829 184.318,300.267 183.866,299.729 183.398 C 299.190 182.929,298.300 182.183,297.750 181.741 C 297.200 181.298,296.675 180.847,296.583 180.739 C 296.492 180.630,296.293 180.476,296.141 180.396 C 295.891 180.263,295.219 179.707,293.498 178.208 C 293.156 177.910,292.800 177.667,292.706 177.667 C 292.612 177.667,292.494 177.557,292.442 177.424 C 292.391 177.290,292.064 176.996,291.716 176.770 C 291.368 176.544,290.858 176.158,290.583 175.911 C 289.535 174.972,288.709 174.333,288.542 174.333 C 288.447 174.333,288.327 174.224,288.276 174.090 C 288.225 173.957,287.898 173.665,287.550 173.442 C 287.201 173.218,286.767 172.897,286.583 172.726 C 286.003 172.188,282.079 169.333,281.918 169.333 C 281.302 169.333,281.094 168.623,281.400 167.561 C 281.529 167.115,281.760 166.150,281.915 165.417 C 282.069 164.683,282.260 163.783,282.340 163.417 C 282.419 163.050,282.520 162.525,282.563 162.250 C 282.607 161.975,282.716 161.412,282.807 161.000 C 282.897 160.587,283.059 159.575,283.167 158.750 C 283.274 157.925,283.440 156.875,283.535 156.417 C 283.715 155.552,283.839 154.064,284.167 148.833 C 284.374 145.535,284.284 138.743,284.002 136.333 C 283.910 135.554,283.758 134.204,283.664 133.333 C 283.569 132.462,283.425 131.300,283.343 130.750 C 283.261 130.200,283.112 129.112,283.010 128.333 C 282.909 127.554,282.757 126.692,282.672 126.417 C 282.532 125.961,282.441 125.061,282.483 124.544 C 282.492 124.431,282.856 124.158,283.292 123.938 C 283.727 123.717,284.494 123.266,284.996 122.935 C 285.498 122.604,285.986 122.333,286.080 122.333 C 286.174 122.333,286.608 122.080,287.044 121.770 C 287.680 121.318,290.622 119.497,292.417 118.446 C 292.600 118.339,292.989 118.082,293.281 117.875 C 293.572 117.669,293.891 117.500,293.989 117.500 C 294.087 117.500,294.167 117.425,294.167 117.333 C 294.167 117.242,294.245 117.167,294.340 117.167 C 294.435 117.167,295.257 116.679,296.167 116.083 C 297.076 115.488,297.872 115.000,297.936 115.000 C 298.000 115.000,298.298 114.813,298.598 114.583 C 298.899 114.354,299.189 114.167,299.242 114.167 C 299.392 114.167,300.742 113.267,300.806 113.125 C 300.836 113.056,300.941 113.000,301.038 113.000 C 301.135 113.000,301.689 112.700,302.270 112.333 C 302.850 111.967,303.368 111.667,303.421 111.667 C 303.473 111.667,303.944 111.376,304.466 111.021 C 304.989 110.665,305.865 110.088,306.413 109.737 C 309.530 107.740,310.400 105.962,309.412 103.608 C 308.749 102.030,308.562 101.623,307.220 98.833 C 306.448 97.229,305.749 95.767,305.667 95.583 C 305.586 95.400,305.334 94.832,305.109 94.321 C 304.883 93.811,304.391 92.752,304.016 91.970 C 303.640 91.187,303.333 90.492,303.333 90.427 C 303.333 90.361,302.958 89.531,302.500 88.583 C 302.042 87.635,301.667 86.822,301.667 86.775 C 301.667 86.665,300.690 84.548,299.566 82.224 C 299.071 81.202,298.667 80.315,298.667 80.253 C 298.667 79.911,296.237 75.361,295.834 74.949 C 295.159 74.258,293.110 73.821,292.020 74.135 C 289.609 74.828,288.348 75.205,287.917 75.359 C 287.642 75.458,287.209 75.576,286.956 75.622 C 286.703 75.668,286.455 75.771,286.405 75.853 C 286.355 75.934,286.149 76.002,285.948 76.005 C 285.662 76.009,272.429 80.387,269.833 81.336 C 268.378 81.869,265.163 83.088,264.103 83.510 C 263.031 83.936,263.145 83.979,262.211 82.792 C 261.760 82.219,260.909 81.237,260.321 80.610 C 259.732 79.983,259.182 79.345,259.100 79.193 C 258.908 78.841,253.841 73.768,253.480 73.567 C 253.331 73.484,252.581 72.841,251.813 72.138 C 251.045 71.434,250.004 70.531,249.500 70.130 C 248.996 69.729,247.861 68.824,246.978 68.118 C 246.095 67.411,245.289 66.833,245.187 66.833 C 245.084 66.833,245.000 66.760,245.000 66.671 C 245.000 66.582,244.756 66.384,244.458 66.231 C 244.160 66.078,243.879 65.899,243.833 65.833 C 243.686 65.620,239.543 62.870,238.936 62.581 C 238.613 62.428,238.261 62.197,238.154 62.068 C 238.047 61.939,237.890 61.833,237.805 61.833 C 237.720 61.833,237.223 61.559,236.700 61.225 C 235.463 60.433,228.949 57.123,227.336 56.468 C 226.647 56.188,225.694 55.781,225.219 55.563 C 224.743 55.345,224.252 55.167,224.127 55.167 C 224.002 55.167,223.829 55.102,223.742 55.022 C 223.655 54.942,223.208 54.747,222.750 54.588 C 221.654 54.207,221.371 54.099,220.619 53.773 C 220.272 53.623,219.840 53.500,219.659 53.500 C 219.477 53.500,219.199 53.434,219.039 53.354 C 218.229 52.944,217.449 52.667,217.105 52.667 C 216.895 52.667,216.670 52.614,216.605 52.550 C 216.436 52.380,214.643 51.839,214.242 51.836 C 214.054 51.834,213.829 51.769,213.742 51.690 C 213.655 51.611,213.049 51.412,212.396 51.247 L 211.208 50.946 211.095 49.932 C 210.966 48.777,210.710 46.596,210.515 45.000 C 210.321 43.403,209.996 41.488,209.821 40.905 C 209.736 40.623,209.663 40.098,209.659 39.738 C 209.655 39.378,209.574 38.746,209.479 38.333 C 209.384 37.921,209.246 37.133,209.173 36.583 C 209.055 35.696,208.918 34.850,208.323 31.333 C 208.237 30.829,208.089 29.861,207.993 29.183 C 207.896 28.504,207.746 27.815,207.659 27.652 C 207.571 27.489,207.500 27.074,207.500 26.731 C 207.500 26.388,207.427 25.877,207.338 25.595 C 207.249 25.314,207.027 24.333,206.845 23.417 C 205.680 17.535,206.356 17.816,192.917 17.635 C 173.382 17.371,170.599 17.359,170.083 17.538 M177.750 20.406 C 182.716 20.697,187.742 20.935,195.417 21.245 C 202.743 21.540,202.047 21.164,202.671 25.167 C 204.422 36.406,208.021 52.549,209.315 54.965 C 209.624 55.543,210.092 55.756,212.500 56.414 C 229.863 61.161,245.594 71.161,257.388 84.949 C 260.158 88.187,260.031 88.121,262.452 87.566 C 263.441 87.339,264.625 87.080,265.083 86.990 C 268.294 86.361,279.852 82.860,288.719 79.830 C 293.186 78.304,293.685 78.235,294.446 79.042 C 295.404 80.057,295.461 80.182,299.494 89.917 C 301.648 95.117,302.017 95.982,303.792 100.000 C 305.500 103.863,305.688 104.539,305.215 105.108 C 305.051 105.305,302.142 107.223,298.750 109.372 C 295.358 111.520,290.429 114.644,287.796 116.314 C 280.779 120.764,277.167 123.487,277.167 124.325 C 277.167 124.506,277.423 126.064,277.737 127.786 C 279.898 139.652,279.538 154.190,276.818 164.887 C 276.262 167.075,276.161 167.796,276.343 168.274 C 277.023 170.064,290.717 182.276,301.117 190.367 C 304.866 193.284,304.812 193.179,303.558 195.129 C 303.220 195.654,301.994 197.621,300.834 199.500 C 299.673 201.379,297.503 204.867,296.012 207.250 C 292.691 212.558,291.761 214.069,290.854 215.627 C 289.507 217.942,289.227 217.883,280.917 213.526 C 269.239 207.404,258.789 203.016,257.274 203.597 C 257.135 203.650,256.036 204.770,254.832 206.085 C 244.461 217.409,228.949 227.094,214.766 231.100 C 211.800 231.938,212.021 231.665,210.976 235.798 C 208.918 243.933,205.555 259.033,203.904 267.541 C 203.749 268.342,203.532 269.121,203.422 269.271 C 203.242 269.517,202.041 269.551,190.737 269.624 C 183.869 269.669,177.334 269.715,176.214 269.728 C 173.490 269.758,173.689 270.032,173.319 265.719 C 171.852 248.621,170.237 235.045,169.509 233.683 C 169.236 233.173,168.548 232.877,166.544 232.406 C 149.503 228.404,132.489 218.291,120.768 205.196 C 118.841 203.042,118.580 202.893,117.222 203.166 C 111.728 204.271,101.277 207.155,88.486 211.096 C 81.913 213.121,82.478 213.176,81.266 210.393 C 79.972 207.425,75.518 198.208,72.733 192.739 C 69.217 185.836,69.150 186.650,73.461 184.018 C 74.812 183.194,78.429 180.871,81.500 178.857 C 84.571 176.843,88.658 174.161,90.583 172.898 C 95.078 169.948,98.935 167.219,99.345 166.697 C 99.785 166.137,99.756 165.668,99.077 162.411 C 97.030 152.587,96.888 138.741,98.734 129.000 C 98.865 128.313,99.102 127.070,99.261 126.239 C 99.700 123.950,100.198 124.657,93.921 118.661 C 91.003 115.873,87.520 112.865,78.083 104.978 C 70.763 98.860,71.143 99.405,72.609 97.137 C 73.043 96.466,73.708 95.354,74.086 94.667 C 74.465 93.979,75.302 92.479,75.947 91.333 C 76.591 90.188,77.343 88.837,77.618 88.333 C 77.893 87.829,78.756 86.254,79.535 84.833 C 80.314 83.412,81.308 81.537,81.744 80.667 C 82.179 79.796,82.593 79.008,82.664 78.917 C 82.735 78.825,83.298 77.775,83.917 76.583 C 85.619 73.302,85.364 73.375,89.179 75.074 C 95.437 77.861,110.161 83.765,114.361 85.171 C 118.399 86.524,117.926 86.616,120.198 84.025 C 130.231 72.576,143.564 63.554,157.917 58.501 C 160.341 57.648,160.756 57.417,161.077 56.740 C 161.688 55.453,167.462 35.983,170.317 25.583 C 171.656 20.706,171.616 20.832,171.937 20.477 C 172.282 20.096,172.409 20.095,177.750 20.406 M181.333 72.994 C 133.754 77.814,105.193 126.059,123.658 170.417 C 136.020 200.113,168.501 217.671,200.263 211.826 C 244.654 203.656,269.964 156.725,252.322 115.296 C 240.492 87.516,211.067 69.981,181.333 72.994 M191.606 77.331 C 195.781 77.588,200.848 78.384,204.333 79.332 C 205.021 79.519,205.982 79.780,206.468 79.913 C 221.359 83.968,236.711 96.008,244.359 109.629 C 244.551 109.970,245.026 110.813,245.415 111.500 C 246.018 112.565,247.524 115.711,248.248 117.417 C 249.955 121.440,251.153 125.354,252.072 129.917 C 252.220 130.650,252.414 131.611,252.503 132.052 C 252.912 134.068,253.394 139.897,253.395 142.833 C 253.408 172.347,233.334 198.614,205.000 206.157 C 196.852 208.326,187.355 209.078,180.417 208.105 C 179.225 207.937,177.800 207.744,177.250 207.674 C 169.511 206.695,159.273 202.720,151.599 197.716 C 139.310 189.703,129.051 176.386,125.081 163.293 C 117.266 137.517,124.260 111.944,144.083 93.815 C 152.919 85.734,166.771 79.277,178.167 77.928 C 178.671 77.869,179.593 77.741,180.216 77.644 C 182.826 77.237,187.849 77.099,191.606 77.331 M228.978 102.252 C 228.396 102.568,228.146 103.021,226.496 106.750 C 224.119 112.123,224.709 111.752,221.230 110.071 C 215.814 107.454,215.470 107.347,214.469 107.970 C 213.782 108.399,213.818 108.338,211.637 112.639 C 208.888 118.059,208.714 117.656,215.250 120.997 C 219.154 122.991,218.935 122.767,218.307 124.134 C 214.895 131.563,214.778 131.957,215.723 132.787 C 217.389 134.250,222.788 136.886,223.909 136.784 C 224.682 136.714,225.820 135.832,225.831 135.295 C 225.832 135.227,226.119 134.702,226.469 134.128 C 226.818 133.553,227.602 132.142,228.210 130.992 C 229.853 127.885,229.287 127.959,233.761 130.265 C 239.323 133.131,239.086 133.194,241.643 128.176 C 244.376 122.812,244.434 123.028,239.357 119.645 C 234.932 116.696,235.141 116.962,235.917 115.266 C 236.146 114.765,236.333 114.315,236.333 114.266 C 236.333 114.217,236.532 113.743,236.774 113.213 C 239.563 107.115,239.542 106.972,235.500 104.704 C 234.354 104.061,232.818 103.189,232.087 102.767 C 230.648 101.937,229.813 101.798,228.978 102.252 M233.332 105.922 C 236.788 107.824,236.760 107.694,234.764 112.447 C 232.958 116.748,232.834 117.120,233.027 117.673 C 233.177 118.103,235.005 119.397,238.572 121.600 C 241.670 123.513,241.685 123.584,239.818 127.396 C 238.335 130.422,238.368 130.419,233.463 127.917 C 231.397 126.862,229.555 126.000,229.368 126.000 C 228.747 126.000,228.185 126.895,225.340 132.417 C 223.889 135.233,223.740 135.268,220.304 133.624 C 217.102 132.092,217.052 131.974,218.353 128.980 C 218.727 128.120,219.281 126.817,219.584 126.083 C 219.888 125.350,220.329 124.300,220.564 123.750 C 221.391 121.819,221.435 121.861,215.167 118.680 C 211.685 116.913,211.659 116.827,213.484 113.250 C 215.453 109.393,215.152 109.443,220.554 112.070 C 225.681 114.562,225.368 114.595,226.730 111.417 C 228.191 108.006,229.718 105.099,230.167 104.873 C 230.747 104.581,231.115 104.703,233.332 105.922 M140.917 108.503 C 137.002 108.988,132.454 111.974,130.127 115.586 C 122.811 126.942,130.373 141.343,143.646 141.331 C 154.536 141.322,162.930 130.496,159.797 120.500 C 157.110 111.926,149.960 107.382,140.917 108.503 M146.674 110.735 C 158.270 113.366,162.314 127.127,153.864 135.200 C 145.636 143.061,132.317 138.673,129.850 127.290 C 127.776 117.713,137.079 108.558,146.674 110.735 M184.156 113.086 C 173.241 114.278,164.095 121.551,160.305 132.053 C 158.656 136.620,158.425 137.877,158.426 142.250 C 158.429 156.544,168.934 168.650,183.115 170.700 C 184.638 170.920,184.794 171.130,183.655 171.426 C 180.364 172.284,177.942 175.119,176.547 179.750 C 173.013 191.477,178.385 202.393,186.811 200.604 C 192.865 199.319,196.223 193.773,195.491 186.271 C 194.761 178.801,191.273 173.066,186.556 171.582 C 185.318 171.193,185.467 171.138,188.202 170.981 C 197.011 170.474,204.997 166.558,209.938 160.323 C 212.693 156.846,214.856 152.469,215.655 148.750 C 215.773 148.200,215.949 147.525,216.047 147.250 C 216.373 146.337,216.404 138.704,216.089 137.124 C 215.594 134.639,214.997 132.431,214.579 131.537 C 214.352 131.053,214.167 130.622,214.167 130.579 C 214.167 130.369,213.025 128.108,212.360 127.000 C 206.470 117.191,195.612 111.834,184.156 113.086 M190.709 118.255 C 194.642 118.842,198.591 120.431,201.280 122.510 C 201.630 122.781,202.142 123.170,202.417 123.376 C 211.521 130.180,213.841 144.753,207.404 154.704 C 195.931 172.443,169.009 167.769,164.094 147.185 C 162.850 141.973,163.237 138.184,165.627 132.167 C 169.502 122.414,179.907 116.643,190.709 118.255 M141.401 118.463 C 135.906 120.413,136.256 128.323,141.908 129.928 C 147.850 131.615,152.204 124.337,147.902 119.911 C 146.372 118.336,143.537 117.705,141.401 118.463 " stroke="none" fill="#43585d" fill-rule="evenodd"></path><path id="path1" d="M172.789 20.946 C 172.381 21.056,172.124 21.638,171.586 23.667 C 171.330 24.629,170.712 26.879,170.212 28.667 C 169.712 30.454,169.244 32.142,169.173 32.417 C 168.649 34.423,165.380 45.570,163.918 50.333 C 163.341 52.212,162.630 54.533,162.337 55.490 C 161.660 57.700,161.289 58.102,159.333 58.747 C 144.915 63.502,131.295 72.660,120.350 84.960 C 118.185 87.393,118.458 87.365,113.417 85.658 C 109.476 84.323,95.592 78.729,88.957 75.803 C 85.901 74.456,85.862 74.457,85.142 75.881 C 84.858 76.444,84.461 77.170,84.259 77.494 C 84.056 77.818,83.305 79.208,82.588 80.583 C 81.871 81.958,81.099 83.421,80.871 83.833 C 80.643 84.246,79.874 85.671,79.162 87.000 C 78.449 88.329,77.100 90.767,76.162 92.417 C 75.225 94.067,74.269 95.754,74.039 96.167 C 73.808 96.579,73.490 97.104,73.332 97.333 C 72.218 98.950,72.260 99.113,74.215 100.772 C 75.059 101.488,75.787 102.115,75.833 102.164 C 75.879 102.214,77.267 103.374,78.917 104.743 C 91.578 115.246,99.589 122.510,100.078 123.930 C 100.286 124.534,100.258 124.848,99.755 127.504 C 97.483 139.522,97.535 151.246,99.913 162.890 C 100.580 166.156,100.571 166.570,99.824 167.317 C 98.998 168.143,95.448 170.632,90.417 173.912 C 87.758 175.645,84.008 178.110,82.083 179.388 C 80.158 180.667,77.083 182.634,75.250 183.760 C 71.539 186.039,70.833 186.558,70.833 187.007 C 70.833 187.177,72.579 190.826,74.712 195.116 C 76.845 199.406,79.283 204.417,80.130 206.250 C 83.144 212.774,82.399 212.246,86.706 210.913 C 88.380 210.396,92.112 209.267,95.000 208.405 C 97.888 207.543,100.475 206.767,100.750 206.680 C 105.047 205.315,116.981 202.334,118.149 202.332 L 119.083 202.331 120.904 204.291 C 133.890 218.269,148.204 226.907,165.985 231.496 C 170.351 232.623,170.180 232.451,170.910 236.449 C 171.661 240.565,174.167 264.363,174.167 267.384 C 174.167 267.899,174.271 268.409,174.421 268.623 L 174.676 268.986 188.593 268.926 C 203.755 268.860,202.911 268.923,203.099 267.858 C 203.158 267.524,203.568 265.525,204.011 263.417 C 204.454 261.308,205.120 258.121,205.492 256.333 C 205.863 254.546,206.242 252.765,206.334 252.375 C 206.667 250.957,206.833 250.212,207.256 248.250 C 207.918 245.178,209.108 240.130,209.672 238.000 C 209.951 236.946,210.364 235.267,210.589 234.270 C 211.045 232.255,211.445 231.457,212.126 231.201 C 212.378 231.106,214.196 230.508,216.167 229.870 C 227.021 226.360,237.237 220.731,245.917 213.481 C 246.650 212.868,247.641 212.041,248.120 211.642 C 248.598 211.243,250.736 209.148,252.870 206.986 C 255.004 204.825,256.929 202.961,257.147 202.844 C 258.567 202.084,266.593 205.407,281.167 212.788 C 289.638 217.079,289.326 216.992,290.185 215.289 C 290.530 214.606,296.241 205.409,299.164 200.833 C 299.954 199.596,300.958 197.959,301.395 197.196 C 301.832 196.433,302.484 195.353,302.845 194.795 C 303.750 193.395,303.739 193.361,301.875 191.889 C 297.408 188.359,289.172 181.552,284.500 177.526 C 281.521 174.959,275.905 169.377,275.664 168.742 C 275.452 168.187,275.455 167.236,275.669 166.499 C 279.013 155.013,279.361 139.452,276.586 125.454 C 276.292 123.971,276.464 123.355,277.381 122.605 C 280.120 120.367,283.440 118.135,292.500 112.443 C 295.112 110.801,297.962 108.994,298.833 108.427 C 299.704 107.859,301.302 106.844,302.383 106.171 C 304.997 104.545,305.046 104.405,303.834 102.000 C 303.415 101.169,300.384 93.978,297.091 86.000 C 294.994 80.922,293.991 79.167,293.186 79.167 C 293.027 79.167,291.701 79.572,290.240 80.068 C 276.114 84.859,262.950 88.667,260.515 88.667 C 259.674 88.667,259.432 88.460,257.230 85.866 C 245.591 72.154,230.324 62.300,213.004 57.322 C 209.243 56.242,208.897 56.063,208.476 54.987 C 207.276 51.917,206.422 48.632,205.099 42.000 C 203.463 33.797,202.617 29.297,201.929 25.125 C 201.418 22.027,201.722 22.244,197.706 22.107 C 194.556 22.000,191.745 21.864,185.000 21.493 C 183.304 21.400,180.097 21.252,177.872 21.164 C 175.647 21.077,173.660 20.974,173.455 20.935 C 173.251 20.897,172.951 20.902,172.789 20.946 M193.500 72.246 C 238.906 75.793,269.370 121.428,255.229 164.715 C 242.643 203.242,199.887 223.615,162.469 208.914 C 160.232 208.035,159.794 207.848,157.395 206.743 C 139.515 198.512,125.260 181.319,119.754 161.348 C 119.142 159.130,119.041 158.649,118.245 154.167 C 110.273 109.294,147.601 68.660,193.500 72.246 M230.551 105.513 C 230.033 105.706,229.827 106.073,228.154 109.778 C 226.186 114.137,226.178 114.152,225.610 114.446 C 224.906 114.810,224.636 114.718,220.407 112.669 C 215.381 110.234,215.786 110.196,214.220 113.250 C 212.391 116.816,212.231 116.489,217.016 118.947 C 222.547 121.788,222.358 121.246,219.850 127.082 C 217.742 131.987,217.694 131.558,220.500 132.951 C 223.769 134.575,223.379 134.801,226.020 129.750 C 228.782 124.469,228.400 124.596,233.566 127.250 C 238.364 129.715,237.996 129.761,239.571 126.500 C 240.903 123.743,240.936 123.843,238.126 122.068 C 234.629 119.859,232.686 118.513,232.506 118.178 C 232.091 117.403,232.372 116.445,234.419 111.667 C 235.997 107.983,236.032 108.126,233.162 106.536 C 231.023 105.351,231.005 105.344,230.551 105.513 M232.170 106.620 C 232.489 106.799,233.125 107.152,233.583 107.406 C 235.344 108.379,235.351 107.990,233.488 112.454 C 230.863 118.743,230.419 117.835,238.698 123.083 C 240.073 123.955,240.093 124.159,239.010 126.346 C 237.682 129.027,238.180 128.998,233.628 126.667 C 228.102 123.836,228.571 123.610,224.705 130.984 C 223.214 133.829,223.410 133.745,221.036 132.556 C 218.431 131.252,218.483 131.696,220.409 127.223 C 223.085 121.007,223.303 121.517,216.503 118.047 C 214.105 116.823,213.500 116.434,213.500 116.115 C 213.500 115.861,215.490 111.956,215.789 111.625 C 216.153 111.221,215.934 111.143,219.954 113.101 C 225.946 116.019,226.059 116.010,227.548 112.500 C 228.686 109.817,230.155 106.749,230.482 106.374 C 230.839 105.964,231.053 105.995,232.170 106.620 M140.967 111.411 C 133.264 113.372,128.690 120.545,130.562 127.729 C 134.275 141.973,153.578 142.172,157.329 128.004 C 159.849 118.487,150.483 108.989,140.967 111.411 M147.327 112.090 C 155.560 114.294,159.638 123.733,155.552 131.132 C 149.656 141.810,134.045 139.495,131.061 127.500 C 128.748 118.202,137.870 109.560,147.327 112.090 M142.083 117.088 C 141.992 117.121,141.605 117.229,141.224 117.327 C 135.264 118.857,134.620 127.735,140.267 130.520 C 148.290 134.477,154.845 123.651,147.717 118.214 C 146.540 117.316,143.251 116.659,142.083 117.088 M145.250 117.727 C 149.386 118.831,151.440 123.243,149.565 126.991 C 147.051 132.017,139.978 131.975,137.489 126.919 C 135.049 121.966,139.847 116.283,145.250 117.727 M171.567 126.513 C 170.813 126.732,169.585 127.886,169.149 128.786 C 167.353 132.497,171.903 136.196,175.001 133.544 C 178.321 130.702,175.691 125.316,171.567 126.513 M174.237 127.544 C 175.579 128.308,176.082 130.371,175.313 131.958 C 173.935 134.806,169.583 133.774,169.583 130.600 C 169.583 128.009,172.124 126.342,174.237 127.544 " stroke="none" fill="#cbd3d3" fill-rule="evenodd"></path><path id="path2" d="M230.482 106.374 C 230.155 106.749,228.686 109.817,227.548 112.500 C 226.059 116.010,225.946 116.019,219.954 113.101 C 215.934 111.143,216.153 111.221,215.789 111.625 C 215.490 111.956,213.500 115.861,213.500 116.115 C 213.500 116.434,214.105 116.823,216.503 118.047 C 223.303 121.517,223.085 121.007,220.409 127.223 C 218.483 131.696,218.431 131.252,221.036 132.556 C 223.410 133.745,223.214 133.829,224.705 130.984 C 228.571 123.610,228.102 123.836,233.628 126.667 C 238.180 128.998,237.682 129.027,239.010 126.346 C 240.093 124.159,240.073 123.955,238.698 123.083 C 230.419 117.835,230.863 118.743,233.488 112.454 C 235.351 107.990,235.344 108.379,233.583 107.406 C 233.125 107.152,232.489 106.799,232.170 106.620 C 231.053 105.995,230.839 105.964,230.482 106.374 M142.667 111.613 C 134.718 112.662,129.236 120.166,131.061 127.500 C 134.585 141.664,154.068 141.313,156.986 127.033 C 158.633 118.974,150.801 110.539,142.667 111.613 M146.051 117.407 C 153.040 119.874,152.023 130.073,144.675 131.211 C 139.198 132.058,134.561 126.397,136.754 121.540 C 137.631 119.598,139.598 117.744,141.224 117.327 C 141.605 117.229,141.992 117.121,142.083 117.088 C 142.715 116.856,145.012 117.041,146.051 117.407 M171.256 127.546 C 169.769 128.388,169.035 130.908,169.927 132.103 C 171.968 134.836,175.667 133.679,175.667 130.307 C 175.667 127.841,173.324 126.375,171.256 127.546 " stroke="none" fill="#fbfbfb" fill-rule="evenodd"></path><path id="path3" d="M172.208 20.771 C 171.825 21.157,171.610 21.719,171.099 23.667 C 170.072 27.582,166.334 40.605,164.329 47.254 C 163.307 50.643,162.284 54.051,162.055 54.825 C 161.262 57.512,161.173 57.611,158.822 58.427 C 144.115 63.533,130.699 72.515,120.502 84.083 C 118.051 86.864,118.351 86.787,114.667 85.584 C 110.845 84.337,94.472 77.764,88.903 75.241 C 85.446 73.675,85.812 73.486,83.391 78.083 C 78.979 86.461,74.194 95.117,72.525 97.741 C 71.546 99.279,71.333 99.005,77.502 104.161 C 90.784 115.262,98.716 122.357,99.542 123.876 C 99.861 124.463,99.871 124.344,99.225 127.654 C 97.038 138.855,97.109 152.087,99.414 162.810 C 99.736 164.309,100.000 165.729,100.000 165.965 C 100.000 166.845,97.851 168.489,90.000 173.618 C 87.479 175.264,83.654 177.772,81.500 179.191 C 79.346 180.610,76.083 182.694,74.250 183.823 C 70.343 186.229,70.333 186.237,70.333 186.884 C 70.333 187.201,71.873 190.482,74.564 195.900 C 78.261 203.342,80.358 207.721,81.893 211.209 C 82.573 212.753,82.423 212.752,87.250 211.246 C 100.585 207.085,116.025 202.854,118.122 202.786 L 118.877 202.761 120.629 204.672 C 133.335 218.533,148.516 227.631,166.392 232.098 C 169.955 232.988,169.829 232.821,170.646 237.750 C 171.223 241.224,172.748 255.732,173.416 264.083 C 173.774 268.562,173.810 268.810,174.163 269.163 C 174.572 269.572,202.719 269.519,203.129 269.109 C 203.255 268.983,203.984 265.888,204.750 262.232 C 207.193 250.560,209.547 240.066,210.241 237.743 C 210.379 237.280,210.721 235.896,211.000 234.666 C 211.658 231.767,211.534 231.885,215.155 230.732 C 230.186 225.944,241.623 218.923,253.042 207.471 C 256.436 204.068,257.424 203.167,257.763 203.167 C 259.056 203.167,264.367 205.208,270.272 207.975 C 275.127 210.250,276.643 210.997,280.583 213.059 C 284.777 215.253,288.547 216.995,289.108 216.998 C 289.530 217.000,290.348 216.121,290.854 215.120 C 291.050 214.733,292.715 212.017,294.555 209.083 C 296.394 206.150,298.851 202.213,300.015 200.333 C 301.178 198.454,302.554 196.242,303.072 195.417 C 304.478 193.177,304.693 193.550,299.659 189.505 C 288.174 180.275,279.934 173.053,276.974 169.621 C 275.846 168.313,275.774 167.907,276.316 165.913 C 279.326 154.830,279.749 139.905,277.412 127.308 C 276.923 124.675,276.864 124.114,277.036 123.738 C 277.567 122.572,283.399 118.660,301.917 107.046 C 305.698 104.674,305.636 104.823,304.177 101.602 C 303.633 100.400,301.564 95.517,299.580 90.750 C 295.019 79.796,294.630 79.040,293.403 78.732 C 293.165 78.672,290.694 79.409,286.639 80.750 C 270.249 86.168,261.341 88.607,259.923 88.063 C 259.774 88.005,258.576 86.712,257.263 85.188 C 245.344 71.363,230.544 61.881,213.000 56.827 C 210.622 56.142,209.500 55.741,209.309 55.508 C 208.928 55.042,207.227 49.682,206.663 47.168 C 205.685 42.807,203.196 29.943,202.515 25.722 C 201.843 21.563,201.931 21.668,199.114 21.665 C 197.433 21.663,190.212 21.330,184.750 21.004 C 183.192 20.911,180.117 20.759,177.917 20.666 C 175.717 20.573,173.639 20.451,173.299 20.395 C 172.769 20.307,172.615 20.359,172.208 20.771 M177.872 21.164 C 180.097 21.252,183.304 21.400,185.000 21.493 C 191.745 21.864,194.556 22.000,197.706 22.107 C 201.722 22.244,201.418 22.027,201.929 25.125 C 202.617 29.297,203.463 33.797,205.099 42.000 C 206.422 48.632,207.276 51.917,208.476 54.987 C 208.897 56.063,209.243 56.242,213.004 57.322 C 230.324 62.300,245.591 72.154,257.230 85.866 C 259.432 88.460,259.674 88.667,260.515 88.667 C 262.950 88.667,276.114 84.859,290.240 80.068 C 291.701 79.572,293.027 79.167,293.186 79.167 C 293.991 79.167,294.994 80.922,297.091 86.000 C 300.384 93.978,303.415 101.169,303.834 102.000 C 305.046 104.405,304.997 104.545,302.383 106.171 C 301.302 106.844,299.704 107.859,298.833 108.427 C 297.962 108.994,295.112 110.801,292.500 112.443 C 283.440 118.135,280.120 120.367,277.381 122.605 C 276.464 123.355,276.292 123.971,276.586 125.454 C 279.361 139.452,279.013 155.013,275.669 166.499 C 275.455 167.236,275.452 168.187,275.664 168.742 C 275.905 169.377,281.521 174.959,284.500 177.526 C 289.172 181.552,297.408 188.359,301.875 191.889 C 303.739 193.361,303.750 193.395,302.845 194.795 C 302.484 195.353,301.832 196.433,301.395 197.196 C 300.958 197.959,299.954 199.596,299.164 200.833 C 296.241 205.409,290.530 214.606,290.185 215.289 C 289.326 216.992,289.638 217.079,281.167 212.788 C 266.593 205.407,258.567 202.084,257.147 202.844 C 256.929 202.961,255.004 204.825,252.870 206.986 C 250.736 209.148,248.598 211.243,248.120 211.642 C 247.641 212.041,246.650 212.868,245.917 213.481 C 237.237 220.731,227.021 226.360,216.167 229.870 C 214.196 230.508,212.378 231.106,212.126 231.201 C 211.445 231.457,211.045 232.255,210.589 234.270 C 210.364 235.267,209.951 236.946,209.672 238.000 C 209.108 240.130,207.918 245.178,207.256 248.250 C 206.833 250.212,206.667 250.957,206.334 252.375 C 206.242 252.765,205.863 254.546,205.492 256.333 C 205.120 258.121,204.454 261.308,204.011 263.417 C 203.568 265.525,203.158 267.524,203.099 267.858 C 202.911 268.923,203.755 268.860,188.593 268.926 L 174.676 268.986 174.421 268.623 C 174.271 268.409,174.167 267.899,174.167 267.384 C 174.167 264.363,171.661 240.565,170.910 236.449 C 170.180 232.451,170.351 232.623,165.985 231.496 C 148.204 226.907,133.890 218.269,120.904 204.291 L 119.083 202.331 118.149 202.332 C 116.981 202.334,105.047 205.315,100.750 206.680 C 100.475 206.767,97.888 207.543,95.000 208.405 C 92.112 209.267,88.380 210.396,86.706 210.913 C 82.399 212.246,83.144 212.774,80.130 206.250 C 79.283 204.417,76.845 199.406,74.712 195.116 C 72.579 190.826,70.833 187.177,70.833 187.007 C 70.833 186.558,71.539 186.039,75.250 183.760 C 77.083 182.634,80.158 180.667,82.083 179.388 C 84.008 178.110,87.758 175.645,90.417 173.912 C 95.448 170.632,98.998 168.143,99.824 167.317 C 100.571 166.570,100.580 166.156,99.913 162.890 C 97.535 151.246,97.483 139.522,99.755 127.504 C 100.258 124.848,100.286 124.534,100.078 123.930 C 99.589 122.510,91.578 115.246,78.917 104.743 C 77.267 103.374,75.879 102.214,75.833 102.164 C 75.787 102.115,75.059 101.488,74.215 100.772 C 72.260 99.113,72.218 98.950,73.332 97.333 C 73.490 97.104,73.808 96.579,74.039 96.167 C 74.269 95.754,75.225 94.067,76.162 92.417 C 77.100 90.767,78.449 88.329,79.162 87.000 C 79.874 85.671,80.643 84.246,80.871 83.833 C 81.099 83.421,81.871 81.958,82.588 80.583 C 83.305 79.208,84.056 77.818,84.259 77.494 C 84.461 77.170,84.858 76.444,85.142 75.881 C 85.862 74.457,85.901 74.456,88.957 75.803 C 95.592 78.729,109.476 84.323,113.417 85.658 C 118.458 87.365,118.185 87.393,120.350 84.960 C 131.295 72.660,144.915 63.502,159.333 58.747 C 161.289 58.102,161.660 57.700,162.337 55.490 C 162.630 54.533,163.341 52.212,163.918 50.333 C 165.380 45.570,168.649 34.423,169.173 32.417 C 169.244 32.142,169.712 30.454,170.212 28.667 C 170.712 26.879,171.330 24.629,171.586 23.667 C 172.272 21.081,172.495 20.756,173.455 20.935 C 173.660 20.974,175.647 21.077,177.872 21.164 M181.750 72.256 C 141.043 75.445,111.117 114.043,118.245 154.167 C 119.041 158.649,119.142 159.130,119.754 161.348 C 124.968 180.262,137.275 195.865,154.311 205.162 C 156.028 206.099,156.908 206.531,159.386 207.654 C 173.926 214.246,191.649 215.439,207.417 210.889 C 231.529 203.931,250.495 184.411,256.493 160.381 C 268.334 112.938,230.586 68.431,181.750 72.256 M193.241 72.673 C 222.040 74.802,247.052 95.016,255.303 122.833 C 265.050 155.688,249.640 190.869,218.917 205.907 C 179.209 225.342,132.167 204.175,120.317 161.540 C 119.608 158.992,119.498 158.471,118.673 153.750 C 110.932 109.494,147.880 69.321,193.241 72.673 M229.930 105.419 C 229.716 105.649,228.923 107.205,228.166 108.877 C 225.894 113.898,225.879 113.926,225.403 114.143 C 224.772 114.430,224.782 114.434,219.454 111.851 C 215.256 109.816,215.532 109.737,213.666 113.513 C 211.952 116.981,211.791 116.685,216.780 119.243 C 222.292 122.068,222.089 121.010,218.647 128.965 C 217.382 131.890,217.401 131.931,220.751 133.490 C 223.736 134.878,223.807 134.856,225.185 132.113 C 226.541 129.416,228.178 126.441,228.476 126.136 C 229.140 125.453,229.440 125.541,233.387 127.570 C 238.414 130.154,238.213 130.180,239.853 126.735 C 241.371 123.548,241.471 123.747,236.868 120.826 C 231.697 117.547,231.881 118.702,235.239 110.583 C 236.340 107.921,236.304 107.846,233.083 106.090 C 230.872 104.885,230.498 104.806,229.930 105.419 M233.162 106.536 C 236.032 108.126,235.997 107.983,234.419 111.667 C 232.372 116.445,232.091 117.403,232.506 118.178 C 232.686 118.513,234.629 119.859,238.126 122.068 C 240.936 123.843,240.903 123.743,239.571 126.500 C 237.996 129.761,238.364 129.715,233.566 127.250 C 228.400 124.596,228.782 124.469,226.020 129.750 C 223.379 134.801,223.769 134.575,220.500 132.951 C 217.694 131.558,217.742 131.987,219.850 127.082 C 222.358 121.246,222.547 121.788,217.016 118.947 C 212.231 116.489,212.391 116.816,214.220 113.250 C 215.786 110.196,215.381 110.234,220.407 112.669 C 224.636 114.718,224.906 114.810,225.610 114.446 C 226.178 114.152,226.186 114.137,228.154 109.778 C 230.474 104.639,230.134 104.859,233.162 106.536 M140.833 111.091 C 130.970 113.635,126.780 124.062,132.234 132.493 C 137.846 141.169,150.870 140.900,156.106 132.000 C 162.295 121.480,152.508 108.080,140.833 111.091 M147.575 111.578 C 154.764 113.699,159.158 121.098,157.329 128.004 C 153.578 142.172,134.275 141.973,130.562 127.729 C 128.018 117.966,137.789 108.690,147.575 111.578 M142.022 117.680 C 138.017 118.467,135.676 123.238,137.489 126.919 C 139.978 131.975,147.051 132.017,149.565 126.991 C 152.062 122.001,147.663 116.571,142.022 117.680 M145.460 118.141 C 148.933 119.222,150.790 123.005,149.505 126.381 C 147.586 131.423,140.282 131.734,137.880 126.875 C 135.431 121.921,140.147 116.488,145.460 118.141 M184.583 118.684 C 180.908 119.214,179.602 119.610,176.586 121.113 C 173.218 122.791,168.872 126.510,167.758 128.667 C 166.764 130.589,165.274 134.487,164.442 137.333 C 163.517 140.500,164.249 148.306,165.653 150.250 C 165.719 150.342,165.875 150.739,165.999 151.133 C 166.124 151.528,166.285 151.887,166.358 151.932 C 166.431 151.977,166.644 152.360,166.831 152.784 C 167.879 155.152,173.028 161.000,174.065 161.000 C 174.116 161.000,174.515 161.239,174.953 161.531 C 175.392 161.823,175.938 162.184,176.167 162.333 C 176.660 162.653,179.836 164.001,180.097 164.000 C 180.197 164.000,180.759 164.158,181.347 164.351 C 187.685 166.433,195.838 164.698,201.941 159.968 C 202.763 159.331,206.000 155.971,206.000 155.755 C 206.000 155.707,206.375 155.142,206.833 154.500 C 207.292 153.858,207.667 153.256,207.667 153.163 C 207.667 153.070,207.854 152.696,208.083 152.333 C 208.313 151.970,208.500 151.574,208.500 151.453 C 208.500 151.332,208.569 151.162,208.654 151.075 C 209.008 150.710,209.745 148.245,210.347 145.417 C 210.619 144.136,210.614 139.359,210.340 138.153 C 210.227 137.656,210.059 136.912,209.967 136.500 C 209.553 134.650,209.310 133.992,208.177 131.667 C 206.029 127.260,202.000 123.017,198.417 121.389 C 198.142 121.264,197.804 121.089,197.667 121.000 C 196.935 120.526,193.976 119.477,192.083 119.021 C 190.159 118.558,186.579 118.397,184.583 118.684 M174.259 126.648 C 176.856 127.827,177.263 131.607,175.001 133.544 C 172.579 135.617,168.783 133.808,168.774 130.576 C 168.765 127.650,171.754 125.510,174.259 126.648 " stroke="none" fill="#859096" fill-rule="evenodd"></path><path id="path4" d="M171.937 20.477 C 171.616 20.832,171.656 20.706,170.317 25.583 C 167.462 35.983,161.688 55.453,161.077 56.740 C 160.756 57.417,160.341 57.648,157.917 58.501 C 143.564 63.554,130.231 72.576,120.198 84.025 C 117.926 86.616,118.399 86.524,114.361 85.171 C 110.161 83.765,95.437 77.861,89.179 75.074 C 85.364 73.375,85.619 73.302,83.917 76.583 C 83.298 77.775,82.735 78.825,82.664 78.917 C 82.593 79.008,82.179 79.796,81.744 80.667 C 81.308 81.537,80.314 83.412,79.535 84.833 C 78.756 86.254,77.893 87.829,77.618 88.333 C 77.343 88.837,76.591 90.188,75.947 91.333 C 75.302 92.479,74.465 93.979,74.086 94.667 C 73.708 95.354,73.043 96.466,72.609 97.137 C 71.143 99.405,70.763 98.860,78.083 104.978 C 87.520 112.865,91.003 115.873,93.921 118.661 C 100.198 124.657,99.700 123.950,99.261 126.239 C 99.102 127.070,98.865 128.313,98.734 129.000 C 96.888 138.741,97.030 152.587,99.077 162.411 C 99.756 165.668,99.785 166.137,99.345 166.697 C 98.935 167.219,95.078 169.948,90.583 172.898 C 88.658 174.161,84.571 176.843,81.500 178.857 C 78.429 180.871,74.812 183.194,73.461 184.018 C 69.150 186.650,69.217 185.836,72.733 192.739 C 75.518 198.208,79.972 207.425,81.266 210.393 C 82.478 213.176,81.913 213.121,88.486 211.096 C 101.277 207.155,111.728 204.271,117.222 203.166 C 118.580 202.893,118.841 203.042,120.768 205.196 C 132.489 218.291,149.503 228.404,166.544 232.406 C 168.548 232.877,169.236 233.173,169.509 233.683 C 170.237 235.045,171.852 248.621,173.319 265.719 C 173.689 270.032,173.490 269.758,176.214 269.728 C 177.334 269.715,183.869 269.669,190.737 269.624 C 202.041 269.551,203.242 269.517,203.422 269.271 C 203.532 269.121,203.749 268.342,203.904 267.541 C 205.555 259.033,208.918 243.933,210.976 235.798 C 212.021 231.665,211.800 231.938,214.766 231.100 C 228.949 227.094,244.461 217.409,254.832 206.085 C 256.036 204.770,257.135 203.650,257.274 203.597 C 258.789 203.016,269.239 207.404,280.917 213.526 C 289.227 217.883,289.507 217.942,290.854 215.627 C 291.761 214.069,292.691 212.558,296.012 207.250 C 297.503 204.867,299.673 201.379,300.834 199.500 C 301.994 197.621,303.220 195.654,303.558 195.129 C 304.812 193.179,304.866 193.284,301.117 190.367 C 290.717 182.276,277.023 170.064,276.343 168.274 C 276.161 167.796,276.262 167.075,276.818 164.887 C 279.538 154.190,279.898 139.652,277.737 127.786 C 277.423 126.064,277.167 124.506,277.167 124.325 C 277.167 123.487,280.779 120.764,287.796 116.314 C 290.429 114.644,295.358 111.520,298.750 109.372 C 302.142 107.223,305.051 105.305,305.215 105.108 C 305.688 104.539,305.500 103.863,303.792 100.000 C 302.017 95.982,301.648 95.117,299.494 89.917 C 294.030 76.726,295.039 77.671,288.719 79.830 C 279.852 82.860,268.294 86.361,265.083 86.990 C 264.625 87.080,263.441 87.339,262.452 87.566 C 260.031 88.121,260.158 88.187,257.388 84.949 C 245.594 71.161,229.863 61.161,212.500 56.414 C 210.092 55.756,209.624 55.543,209.315 54.965 C 208.021 52.549,204.422 36.406,202.671 25.167 C 202.047 21.164,202.743 21.540,195.417 21.245 C 187.742 20.935,182.716 20.697,177.750 20.406 C 172.409 20.095,172.282 20.096,171.937 20.477 M177.917 20.666 C 180.117 20.759,183.192 20.911,184.750 21.004 C 190.212 21.330,197.433 21.663,199.114 21.665 C 201.931 21.668,201.843 21.563,202.515 25.722 C 203.196 29.943,205.685 42.807,206.663 47.168 C 207.227 49.682,208.928 55.042,209.309 55.508 C 209.500 55.741,210.622 56.142,213.000 56.827 C 230.544 61.881,245.344 71.363,257.263 85.188 C 258.576 86.712,259.774 88.005,259.923 88.063 C 261.341 88.607,270.249 86.168,286.639 80.750 C 290.694 79.409,293.165 78.672,293.403 78.732 C 294.630 79.040,295.019 79.796,299.580 90.750 C 301.564 95.517,303.633 100.400,304.177 101.602 C 305.636 104.823,305.698 104.674,301.917 107.046 C 283.399 118.660,277.567 122.572,277.036 123.738 C 276.864 124.114,276.923 124.675,277.412 127.308 C 279.749 139.905,279.326 154.830,276.316 165.913 C 275.774 167.907,275.846 168.313,276.974 169.621 C 279.934 173.053,288.174 180.275,299.659 189.505 C 304.693 193.550,304.478 193.177,303.072 195.417 C 302.554 196.242,301.178 198.454,300.015 200.333 C 298.851 202.213,296.394 206.150,294.555 209.083 C 292.715 212.017,291.050 214.733,290.854 215.120 C 290.348 216.121,289.530 217.000,289.108 216.998 C 288.547 216.995,284.777 215.253,280.583 213.059 C 270.457 207.760,259.860 203.167,257.763 203.167 C 257.424 203.167,256.436 204.068,253.042 207.471 C 241.623 218.923,230.186 225.944,215.155 230.732 C 211.534 231.885,211.658 231.767,211.000 234.666 C 210.721 235.896,210.379 237.280,210.241 237.743 C 209.547 240.066,207.193 250.560,204.750 262.232 C 203.984 265.888,203.255 268.983,203.129 269.109 C 202.719 269.519,174.572 269.572,174.163 269.163 C 173.810 268.810,173.774 268.562,173.416 264.083 C 172.748 255.732,171.223 241.224,170.646 237.750 C 169.829 232.821,169.955 232.988,166.392 232.098 C 148.516 227.631,133.335 218.533,120.629 204.672 L 118.877 202.761 118.122 202.786 C 116.025 202.854,100.585 207.085,87.250 211.246 C 82.423 212.752,82.573 212.753,81.893 211.209 C 80.358 207.721,78.261 203.342,74.564 195.900 C 71.873 190.482,70.333 187.201,70.333 186.884 C 70.333 186.237,70.343 186.229,74.250 183.823 C 76.083 182.694,79.346 180.610,81.500 179.191 C 83.654 177.772,87.479 175.264,90.000 173.618 C 97.851 168.489,100.000 166.845,100.000 165.965 C 100.000 165.729,99.736 164.309,99.414 162.810 C 97.109 152.087,97.038 138.855,99.225 127.654 C 99.871 124.344,99.861 124.463,99.542 123.876 C 98.716 122.357,90.784 115.262,77.502 104.161 C 71.333 99.005,71.546 99.279,72.525 97.741 C 74.194 95.117,78.979 86.461,83.391 78.083 C 85.812 73.486,85.446 73.675,88.903 75.241 C 94.472 77.764,110.845 84.337,114.667 85.584 C 118.351 86.787,118.051 86.864,120.502 84.083 C 130.699 72.515,144.115 63.533,158.822 58.427 C 161.173 57.611,161.262 57.512,162.055 54.825 C 162.284 54.051,163.307 50.643,164.329 47.254 C 166.334 40.605,170.072 27.582,171.099 23.667 C 171.853 20.793,172.239 20.219,173.299 20.395 C 173.639 20.451,175.717 20.573,177.917 20.666 M181.333 72.757 C 141.108 76.336,111.766 114.263,118.673 153.750 C 119.498 158.471,119.608 158.992,120.317 161.540 C 132.167 204.175,179.209 225.342,218.917 205.907 C 242.911 194.163,258.206 169.641,258.206 142.917 C 258.207 101.520,222.662 69.079,181.333 72.757 M195.103 73.070 C 239.420 77.861,268.299 122.219,254.560 164.394 C 242.014 202.906,199.599 222.907,162.118 207.983 C 119.343 190.952,104.282 137.305,131.965 100.583 C 146.689 81.053,170.991 70.463,195.103 73.070 M183.550 77.342 C 182.339 77.411,180.839 77.547,180.216 77.644 C 179.593 77.741,178.671 77.869,178.167 77.928 C 166.771 79.277,152.919 85.734,144.083 93.815 C 124.260 111.944,117.266 137.517,125.081 163.293 C 131.289 183.767,150.359 201.400,171.889 206.572 C 174.078 207.098,176.292 207.553,177.250 207.674 C 177.800 207.744,179.225 207.937,180.417 208.105 C 187.355 209.078,196.852 208.326,205.000 206.157 C 235.721 197.978,256.373 167.942,253.030 136.302 C 252.829 134.405,252.592 132.493,252.503 132.052 C 252.414 131.611,252.220 130.650,252.072 129.917 C 251.153 125.354,249.955 121.440,248.248 117.417 C 247.524 115.711,246.018 112.565,245.415 111.500 C 245.026 110.813,244.551 109.970,244.359 109.629 C 236.711 96.008,221.359 83.968,206.468 79.913 C 205.982 79.780,205.021 79.519,204.333 79.332 C 198.135 77.647,190.699 76.935,183.550 77.342 M232.087 102.767 C 232.818 103.189,234.354 104.061,235.500 104.704 C 239.542 106.972,239.563 107.115,236.774 113.213 C 236.532 113.743,236.333 114.217,236.333 114.266 C 236.333 114.315,236.146 114.765,235.917 115.266 C 235.141 116.962,234.932 116.696,239.357 119.645 C 244.434 123.028,244.376 122.812,241.643 128.176 C 239.086 133.194,239.323 133.131,233.761 130.265 C 229.287 127.959,229.853 127.885,228.210 130.992 C 227.602 132.142,226.818 133.553,226.469 134.128 C 226.119 134.702,225.832 135.227,225.831 135.295 C 225.820 135.832,224.682 136.714,223.909 136.784 C 222.788 136.886,217.389 134.250,215.723 132.787 C 214.778 131.957,214.895 131.563,218.307 124.134 C 218.935 122.767,219.154 122.991,215.250 120.997 C 208.714 117.656,208.888 118.059,211.637 112.639 C 213.818 108.338,213.782 108.399,214.469 107.970 C 215.470 107.347,215.814 107.454,221.230 110.071 C 224.709 111.752,224.119 112.123,226.496 106.750 C 228.848 101.433,229.263 101.137,232.087 102.767 M230.167 104.873 C 229.718 105.099,228.191 108.006,226.730 111.417 C 225.368 114.595,225.681 114.562,220.554 112.070 C 215.152 109.443,215.453 109.393,213.484 113.250 C 211.659 116.827,211.685 116.913,215.167 118.680 C 221.435 121.861,221.391 121.819,220.564 123.750 C 220.329 124.300,219.888 125.350,219.584 126.083 C 219.281 126.817,218.727 128.120,218.353 128.980 C 217.052 131.974,217.102 132.092,220.304 133.624 C 223.740 135.268,223.889 135.233,225.340 132.417 C 228.185 126.895,228.747 126.000,229.368 126.000 C 229.555 126.000,231.397 126.862,233.463 127.917 C 238.368 130.419,238.335 130.422,239.818 127.396 C 241.685 123.584,241.670 123.513,238.572 121.600 C 235.005 119.397,233.177 118.103,233.027 117.673 C 232.834 117.120,232.958 116.748,234.764 112.447 C 236.760 107.694,236.788 107.824,233.332 105.922 C 231.115 104.703,230.747 104.581,230.167 104.873 M233.083 106.090 C 236.304 107.846,236.340 107.921,235.239 110.583 C 231.881 118.702,231.697 117.547,236.868 120.826 C 241.471 123.747,241.371 123.548,239.853 126.735 C 238.213 130.180,238.414 130.154,233.387 127.570 C 229.440 125.541,229.140 125.453,228.476 126.136 C 228.178 126.441,226.541 129.416,225.185 132.113 C 223.807 134.856,223.736 134.878,220.751 133.490 C 217.401 131.931,217.382 131.890,218.647 128.965 C 222.089 121.010,222.292 122.068,216.780 119.243 C 211.791 116.685,211.952 116.981,213.666 113.513 C 215.532 109.737,215.256 109.816,219.454 111.851 C 224.782 114.434,224.772 114.430,225.403 114.143 C 225.879 113.926,225.894 113.898,228.166 108.877 C 230.186 104.413,230.097 104.463,233.083 106.090 M146.500 108.500 C 152.720 109.416,157.745 113.951,159.797 120.500 C 162.301 128.488,157.284 137.609,148.750 140.586 C 138.658 144.106,127.275 136.140,127.311 125.583 C 127.350 114.524,135.875 106.934,146.500 108.500 M142.083 110.526 C 129.954 112.780,125.399 126.382,133.915 134.922 C 142.749 143.783,157.804 137.857,158.290 125.329 C 158.626 116.639,150.268 109.004,142.083 110.526 M146.728 111.001 C 157.500 113.382,161.715 126.343,154.332 134.381 C 148.201 141.056,137.163 140.113,132.234 132.493 C 125.420 121.959,134.616 108.323,146.728 111.001 M190.667 113.083 C 199.873 114.175,207.657 119.169,212.360 127.000 C 213.025 128.108,214.167 130.369,214.167 130.579 C 214.167 130.622,214.352 131.053,214.579 131.537 C 214.997 132.431,215.594 134.639,216.089 137.124 C 216.404 138.704,216.373 146.337,216.047 147.250 C 215.949 147.525,215.773 148.200,215.655 148.750 C 214.974 151.919,213.019 156.167,210.943 158.990 C 205.574 166.289,197.715 170.433,188.202 170.981 C 185.467 171.138,185.318 171.193,186.556 171.582 C 191.273 173.066,194.761 178.801,195.491 186.271 C 196.112 192.634,193.905 197.490,189.394 199.684 C 179.800 204.350,172.532 193.073,176.547 179.750 C 177.942 175.119,180.364 172.284,183.655 171.426 C 184.794 171.130,184.638 170.920,183.115 170.700 C 168.934 168.650,158.429 156.544,158.426 142.250 C 158.425 137.877,158.656 136.620,160.305 132.053 C 164.902 119.316,177.397 111.510,190.667 113.083 M141.837 118.101 C 138.005 119.130,136.118 123.312,137.880 126.875 C 140.827 132.836,149.851 130.726,149.878 124.070 C 149.895 119.931,145.943 116.997,141.837 118.101 M184.083 118.185 C 175.338 119.453,168.672 124.503,165.627 132.167 C 163.237 138.184,162.850 141.973,164.094 147.185 C 169.009 167.769,195.931 172.443,207.404 154.704 C 213.841 144.753,211.521 130.180,202.417 123.376 C 202.142 123.170,201.630 122.781,201.280 122.510 C 196.941 119.156,189.790 117.358,184.083 118.185 M146.203 118.699 C 150.778 120.834,150.752 127.512,146.161 129.572 C 139.502 132.561,134.153 123.833,139.868 119.306 C 141.441 118.060,144.257 117.790,146.203 118.699 M189.750 118.679 C 192.410 118.969,196.286 120.106,197.667 121.000 C 197.804 121.089,198.142 121.264,198.417 121.389 C 202.000 123.017,206.029 127.260,208.177 131.667 C 209.310 133.992,209.553 134.650,209.967 136.500 C 210.059 136.912,210.227 137.656,210.340 138.153 C 210.614 139.359,210.619 144.136,210.347 145.417 C 209.745 148.245,209.008 150.710,208.654 151.075 C 208.569 151.162,208.500 151.332,208.500 151.453 C 208.500 151.574,208.313 151.970,208.083 152.333 C 207.854 152.696,207.667 153.070,207.667 153.163 C 207.667 153.256,207.292 153.858,206.833 154.500 C 206.375 155.142,206.000 155.707,206.000 155.755 C 206.000 155.971,202.763 159.331,201.941 159.968 C 195.838 164.698,187.685 166.433,181.347 164.351 C 180.759 164.158,180.197 164.000,180.097 164.000 C 179.836 164.001,176.660 162.653,176.167 162.333 C 175.938 162.184,175.392 161.823,174.953 161.531 C 174.515 161.239,174.116 161.000,174.065 161.000 C 173.028 161.000,167.879 155.152,166.831 152.784 C 166.644 152.360,166.431 151.977,166.358 151.932 C 166.285 151.887,166.124 151.528,165.999 151.133 C 165.875 150.739,165.719 150.342,165.653 150.250 C 164.249 148.306,163.517 140.500,164.442 137.333 C 165.274 134.487,166.764 130.589,167.758 128.667 C 168.573 127.089,171.495 124.304,174.276 122.455 C 178.899 119.381,184.242 118.077,189.750 118.679 " stroke="none" fill="#73747c" fill-rule="evenodd"></path></g></svg>